Coordinates
version=1
nRows=24
nColumns=34
inDegrees=no

Units are S.I. units (second, meters, Newtons, ...)
If the header above contains a line with 'inDegrees', this indicates whether rotational values are in degrees (yes) or radians (no).

endheader
time	pelvis_tilt	pelvis_list	pelvis_rotation	pelvis_tx	pelvis_ty	pelvis_tz	hip_flexion_r	hip_adduction_r	hip_rotation_r	knee_angle_r	ankle_angle_r	subtalar_angle_r	mtp_angle_r	hip_flexion_l	hip_adduction_l	hip_rotation_l	knee_angle_l	ankle_angle_l	subtalar_angle_l	mtp_angle_l	lumbar_extension	lumbar_bending	lumbar_rotation	arm_flex_r	arm_add_r	arm_rot_r	elbow_flex_r	pro_sup_r	arm_flex_l	arm_add_l	arm_rot_l	elbow_flex_l	pro_sup_l
0	0.00876956	-0.102497	0.11766	-0.0600989	0.907885	-0.255699	0.517804	0.0247629	-0.240724	0.357354	-0.0505407	-0.0966478	-0.0220392	-0.280248	-0.202281	-0.325071	0.400351	0.499343	0.542503	-0.0220401	-0.16764	0.187082	-0.167826	-0.111787	-0.289247	0.0951372	0.577351	1.74987	0.117422	-0.247687	0.111121	0.762724	1.77039
0.01	0.0166902	-0.1196	0.111572	-0.0462258	0.910366	-0.255043	0.510578	0.04869	-0.223902	0.382452	-0.0500508	-0.127645	-0.0220347	-0.296134	-0.216328	-0.299162	0.413075	0.462291	0.494092	-0.0220357	-0.176739	0.216503	-0.16293	-0.104803	-0.293863	0.0977455	0.566051	1.74781	0.100598	-0.236674	0.102699	0.754665	1.76828
0.02	0.0226246	-0.135621	0.10695	-0.0326537	0.912581	-0.254373	0.503514	0.0706506	-0.21041	0.404129	-0.0470935	-0.154419	-0.0220303	-0.303273	-0.230814	-0.273959	0.435121	0.422091	0.446638	-0.0220313	-0.183526	0.243868	-0.159575	-0.097469	-0.297608	0.10032	0.554837	1.74592	0.0846323	-0.227031	0.0983573	0.745447	1.76544
0.03	0.0266063	-0.150516	0.10377	-0.019396	0.914557	-0.25369	0.496585	0.0906074	-0.200201	0.422409	-0.0416766	-0.176962	-0.0220259	-0.30179	-0.245632	-0.249423	0.466289	0.378758	0.400084	-0.022027	-0.188046	0.269129	-0.157729	-0.0897915	-0.300479	0.102845	0.543733	1.74418	0.0695396	-0.21876	0.0980881	0.735086	1.76192
0.04	0.0287334	-0.164167	0.101968	-0.00646233	0.916321	-0.252997	0.489724	0.108468	-0.193132	0.43737	-0.0338448	-0.195275	-0.0220215	-0.292048	-0.260498	-0.225459	0.506003	0.332404	0.354276	-0.0220226	-0.190431	0.292151	-0.157294	-0.0818008	-0.302476	0.105263	0.53282	1.74264	0.0553582	-0.21186	0.10184	0.723647	1.75785
0.05	0.0291858	-0.176404	0.101424	0.00613864	0.917902	-0.252295	0.482828	0.124106	-0.188934	0.449167	-0.0237225	-0.209402	-0.022017	-0.274687	-0.274966	-0.201966	0.553269	0.283361	0.309004	-0.0220182	-0.190901	0.312736	-0.158081	-0.0735718	-0.303606	0.107468	0.522275	1.7413	0.0421411	-0.206314	0.109462	0.711273	1.75351
0.06	0.0282187	-0.187019	0.101955	0.0184071	0.919338	-0.251583	0.475774	0.137411	-0.187217	0.458033	-0.0115463	-0.219465	-0.0220126	-0.25061	-0.288498	-0.178903	0.606719	0.232321	0.264068	-0.0220139	-0.189761	0.330669	-0.159801	-0.065234	-0.303899	0.109301	0.512377	1.74022	0.0299351	-0.202072	0.120644	0.698205	1.74934
0.07	0.0261097	-0.195837	0.103331	0.0303474	0.920669	-0.250856	0.468431	0.148325	-0.187475	0.464273	0.00232683	-0.225703	-0.0220082	-0.220935	-0.300542	-0.156342	0.664706	0.180411	0.21935	-0.0220095	-0.18739	0.345741	-0.162081	-0.0569663	-0.303407	0.110577	0.503499	1.73946	0.0187572	-0.199052	0.134874	0.684789	1.74589
0.08	0.0231417	-0.20273	0.105269	0.0419704	0.921936	-0.250106	0.460694	0.156869	-0.189112	0.468232	0.0174365	-0.228483	-0.0220038	-0.186897	-0.310602	-0.134489	0.725443	0.129183	0.174864	-0.0220051	-0.1842	0.357792	-0.164483	-0.0489745	-0.302208	0.111117	0.496067	1.73908	0.00857798	-0.197132	0.151441	0.671445	1.74376
0.09	0.0195827	-0.207628	0.107462	0.0532915	0.923176	-0.249316	0.452484	0.163157	-0.191495	0.470265	0.0332656	-0.228287	-0.0219993	-0.14975	-0.318294	-0.113665	0.787138	0.0804952	0.130776	-0.0220008	-0.180599	0.366726	-0.166555	-0.0414601	-0.3004	0.110792	0.490508	1.7391	-0.000683905	-0.196166	0.169473	0.658622	1.74351
0.1	0.0156759	-0.210529	0.109614	0.0643303	0.924429	-0.248475	0.44374	0.16737	-0.194016	0.470696	0.0493018	-0.225665	-0.0219949	-0.110685	-0.323375	-0.0942449	0.848114	0.0362901	0.0874031	-0.0219964	-0.176975	0.372529	-0.167881	-0.0345885	-0.298094	0.109568	0.487193	1.73954	-0.00915318	-0.19599	0.18802	0.64674	1.74549
0.11	0.011641	-0.21149	0.111473	0.0751093	0.925726	-0.247568	0.434391	0.169745	-0.196166	0.469788	0.0650967	-0.221167	-0.0219905	-0.0707658	-0.325758	-0.0765891	0.906895	-0.00167241	0.0452009	-0.021992	-0.173675	0.375277	-0.168129	-0.0284646	-0.295419	0.107528	0.486389	1.74035	-0.0169803	-0.196444	0.206155	0.636127	1.74982
0.12	0.00767573	-0.21063	0.112859	0.0856523	0.927097	-0.246591	0.424341	0.170541	-0.197589	0.467717	0.0803093	-0.215276	-0.0219861	-0.0308843	-0.325507	-0.0609879	0.962258	-0.0320782	0.00473557	-0.0219877	-0.170989	0.375133	-0.167082	-0.02312	-0.292509	0.104887	0.488226	1.74142	-0.0243196	-0.197375	0.223072	0.626974	1.75631
0.13	0.00395533	-0.208118	0.113672	0.0959848	0.928565	-0.245542	0.413466	0.170018	-0.198119	0.46457	0.0947274	-0.208346	-0.0219817	0.00825557	-0.32281	-0.0476226	1.01326	-0.0542492	-0.03335	-0.0219833	-0.169138	0.372337	-0.164642	-0.0185132	-0.289508	0.101982	0.492686	1.74263	-0.0313091	-0.198649	0.238162	0.619312	1.76449
0.14	0.000627735	-0.204162	0.113882	0.106133	0.930143	-0.244428	0.401625	0.168426	-0.197779	0.460355	0.108268	-0.200565	-0.0219772	0.0461382	-0.317956	-0.0365578	1.0592	-0.0682174	-0.0683813	-0.0219789	-0.168267	0.367194	-0.160817	-0.01454	-0.286564	0.0992378	0.499608	1.74379	-0.0380584	-0.200156	0.251047	0.613016	1.77368
0.15	-0.00219402	-0.198993	0.113503	0.116125	0.931835	-0.243256	0.388677	0.165985	-0.19675	0.455028	0.120957	-0.191951	-0.0219728	0.0824172	-0.31129	-0.027755	1.09963	-0.074669	-0.0997075	-0.0219746	-0.168432	0.360043	-0.155693	-0.0110515	-0.283823	0.0971238	0.508718	1.74472	-0.0446447	-0.201805	0.261583	0.607835	1.78308
0.16	-0.00443955	-0.192847	0.112578	0.125988	0.933638	-0.242039	0.374517	0.162878	-0.19532	0.448531	0.132906	-0.182388	-0.0219684	0.116888	-0.303174	-0.0211011	1.13428	-0.0747778	-0.126763	-0.0219702	-0.169613	0.351228	-0.149404	-0.00787472	-0.281423	0.0960945	0.519661	1.74527	-0.0511181	-0.203523	0.269815	0.603445	1.79192
0.17	-0.00608539	-0.18594	0.111147	0.135749	0.935536	-0.240787	0.359099	0.159249	-0.193807	0.440827	0.144267	-0.171688	-0.021964	0.149454	-0.293952	-0.0164423	1.16303	-0.0699764	-0.149122	-0.0219658	-0.171718	0.341069	-0.142108	-0.00483368	-0.279483	0.0965335	0.532047	1.74532	-0.0575104	-0.205254	0.275918	0.599513	1.7995
0.18	-0.00715564	-0.178459	0.109246	0.145433	0.937508	-0.239509	0.342458	0.155201	-0.192497	0.431936	0.155203	-0.159676	-0.0219595	0.180105	-0.283922	-0.0136125	1.18586	-0.0617245	-0.166549	-0.0219615	-0.174601	0.32984	-0.133959	-0.0017673	-0.278093	0.0987012	0.545494	1.74481	-0.0638448	-0.20696	0.280136	0.595753	1.80526
0.19	-0.00771679	-0.170552	0.106898	0.155062	0.939524	-0.238213	0.32472	0.150802	-0.191587	0.421958	0.16586	-0.146259	-0.0219551	0.208886	-0.273329	-0.0124533	1.20284	-0.0513264	-0.179026	-0.0219571	-0.178078	0.317753	-0.125104	0.00145615	-0.277309	0.1027	0.559662	1.74377	-0.0701418	-0.208615	0.282722	0.591967	1.80885
0.2	-0.00786671	-0.162324	0.10412	0.164652	0.941552	-0.236903	0.306093	0.146089	-0.191162	0.411075	0.176343	-0.13148	-0.0219507	0.235886	-0.262359	-0.0128239	1.2141	-0.0398241	-0.186754	-0.0219528	-0.181952	0.304961	-0.115678	0.00493087	-0.277147	0.108466	0.574274	1.74231	-0.0764196	-0.210208	0.283904	0.588066	1.81013
0.21	-0.00771942	-0.153854	0.100935	0.174214	0.943555	-0.235583	0.286847	0.141087	-0.191197	0.399537	0.186714	-0.11553	-0.0219463	0.261216	-0.251156	-0.0146014	1.2198	-0.0279681	-0.190138	-0.0219484	-0.186033	0.291573	-0.105801	0.00871226	-0.277592	0.115783	0.589125	1.74059	-0.0826911	-0.211738	0.283863	0.584066	1.80911
0.22	-0.00738799	-0.145199	0.0973784	0.183756	0.945499	-0.234255	0.267278	0.135816	-0.191589	0.387638	0.196997	-0.0987221	-0.0219419	0.284996	-0.23984	-0.0176775	1.22014	-0.0162468	-0.18974	-0.021944	-0.190152	0.277668	-0.0955844	0.0128228	-0.278603	0.124327	0.604076	1.73883	-0.0889579	-0.213214	0.282734	0.580066	1.80594
0.23	-0.00696839	-0.136417	0.093506	0.193279	0.947351	-0.232922	0.247671	0.130302	-0.192203	0.375681	0.207192	-0.0814261	-0.0219375	0.307336	-0.228528	-0.0219521	1.21534	-0.00494914	-0.186241	-0.0219397	-0.194181	0.263323	-0.085132	0.0172635	-0.280129	0.13373	0.619035	1.73723	-0.0952046	-0.214646	0.28062	0.576207	1.80089
